<?xml version="1.0" encoding="UTF-8" standalone="no"?>
<svg
   version="1.1"
   id="Layer_1"
   x="0px"
   y="0px"
   viewBox="0 0 75.000002 75.000002"
   xml:space="preserve"
   sodipodi:docname="awards-icon.svg"
   width="75"
   height="75"
   inkscape:version="1.1.2 (0a00cf5339, 2022-02-04)"
   xmlns:inkscape="http://www.inkscape.org/namespaces/inkscape"
   xmlns:sodipodi="http://sodipodi.sourceforge.net/DTD/sodipodi-0.dtd"
   xmlns="http://www.w3.org/2000/svg"
   xmlns:svg="http://www.w3.org/2000/svg"><defs
     id="defs11" /><sodipodi:namedview
     id="namedview9"
     pagecolor="#ffffff"
     bordercolor="#666666"
     borderopacity="1.0"
     inkscape:pageshadow="2"
     inkscape:pageopacity="0.0"
     inkscape:pagecheckerboard="0"
     showgrid="false"
     fit-margin-top="0"
     fit-margin-left="0"
     fit-margin-right="0"
     fit-margin-bottom="0"
     inkscape:zoom="2.1321615"
     inkscape:cx="-25.091908"
     inkscape:cy="70.585647"
     inkscape:window-width="1366"
     inkscape:window-height="690"
     inkscape:window-x="0"
     inkscape:window-y="0"
     inkscape:window-maximized="1"
     inkscape:current-layer="Layer_1" /><style
     type="text/css"
     id="style2">.st0{fill-rule:evenodd;clip-rule:evenodd;}</style><g
     id="g6"
     style="fill:#a71f1f;fill-opacity:1"
     transform="scale(0.61035156)"><path
       class="st0"
       d="m 61.44,0 13.52,10.99 17.2,-2.76 6.21,16.28 16.28,6.21 -2.76,17.2 10.99,13.52 -10.99,13.52 2.76,17.2 -16.28,6.21 -6.21,16.28 -17.2,-2.76 -13.52,10.99 -13.52,-10.99 -17.2,2.76 L 24.51,98.37 8.23,92.16 10.99,74.96 0,61.44 10.99,47.92 8.23,30.72 24.51,24.51 30.72,8.23 l 17.2,2.76 z m 0,39.54 6.34,15.49 16.69,1.24 L 71.7,67.09 75.68,83.35 61.45,74.54 47.22,83.35 51.2,67.09 38.41,56.27 55.1,55.03 Z m 0,-12.83 c 19.18,0 34.73,15.55 34.73,34.73 0,19.18 -15.55,34.73 -34.73,34.73 -19.18,0 -34.73,-15.55 -34.73,-34.73 0,-19.18 15.55,-34.73 34.73,-34.73 z"
       id="path4"
       style="fill:#a71f1f;fill-opacity:1" /></g></svg>
