<?xml version="1.0" encoding="UTF-8" standalone="no"?>
<svg
   version="1.1"
   id="Layer_1"
   x="0px"
   y="0px"
   width="15"
   height="12.335775"
   viewBox="0 0 15 12.335775"
   enable-background="new 0 0 122.877 101.052"
   xml:space="preserve"
   sodipodi:docname="checkmark.svg"
   inkscape:version="1.1.2 (0a00cf5339, 2022-02-04)"
   xmlns:inkscape="http://www.inkscape.org/namespaces/inkscape"
   xmlns:sodipodi="http://sodipodi.sourceforge.net/DTD/sodipodi-0.dtd"
   xmlns="http://www.w3.org/2000/svg"
   xmlns:svg="http://www.w3.org/2000/svg"><defs
     id="defs9" /><sodipodi:namedview
     id="namedview7"
     pagecolor="#ffffff"
     bordercolor="#666666"
     borderopacity="1.0"
     inkscape:pageshadow="2"
     inkscape:pageopacity="0.0"
     inkscape:pagecheckerboard="0"
     showgrid="false"
     fit-margin-top="0"
     fit-margin-left="0"
     fit-margin-right="0"
     fit-margin-bottom="0"
     inkscape:zoom="5.185449"
     inkscape:cx="61.421875"
     inkscape:cy="50.429577"
     inkscape:window-width="1366"
     inkscape:window-height="690"
     inkscape:window-x="0"
     inkscape:window-y="0"
     inkscape:window-maximized="1"
     inkscape:current-layer="Layer_1" /><g
     id="g4"
     style="fill:#a71f1f;fill-opacity:1"
     transform="matrix(0.12207285,0,0,0.12207285,-1.0418654e-5,-7.1074608e-5)"><path
       d="M 4.43,63.63 C 1.561,60.875 0.078,57.21 0.003,53.52 -0.071,49.831 1.264,46.108 4.018,43.239 c 2.752,-2.867 6.417,-4.351 10.106,-4.425 3.691,-0.076 7.412,1.255 10.283,4.012 L 49.194,66.677 98.543,3.989 100.311,5.338 98.541,3.983 C 98.682,3.8 98.842,3.644 99.02,3.517 c 2.936,-2.543 6.621,-3.691 10.223,-3.495 V 0.018 l 0.176,0.016 c 3.623,0.24 7.162,1.85 9.775,4.766 2.658,2.965 3.863,6.731 3.662,10.412 h 0.004 l -0.016,0.176 c -0.236,3.558 -1.791,7.035 -4.609,9.632 l -59.224,72.09 0.004,0.004 c -0.111,0.141 -0.236,0.262 -0.372,0.368 -2.773,2.435 -6.275,3.629 -9.757,3.569 -3.511,-0.061 -7.015,-1.396 -9.741,-4.016 z"
       id="path2"
       style="fill:#a71f1f;fill-opacity:1" /></g></svg>
