<?xml version="1.0" encoding="UTF-8" standalone="no"?>
<svg
   version="1.1"
   id="Layer_1"
   x="0px"
   y="0px"
   width="45"
   height="45"
   viewBox="0 0 45.000001 45.000001"
   enable-background="new 0 0 122.878 122.88"
   xml:space="preserve"
   sodipodi:docname="close-icon.svg"
   inkscape:version="1.1.2 (0a00cf5339, 2022-02-04)"
   xmlns:inkscape="http://www.inkscape.org/namespaces/inkscape"
   xmlns:sodipodi="http://sodipodi.sourceforge.net/DTD/sodipodi-0.dtd"
   xmlns="http://www.w3.org/2000/svg"
   xmlns:svg="http://www.w3.org/2000/svg"><defs
     id="defs9" /><sodipodi:namedview
     id="namedview7"
     pagecolor="#ffffff"
     bordercolor="#666666"
     borderopacity="1.0"
     inkscape:pageshadow="2"
     inkscape:pageopacity="0.0"
     inkscape:pagecheckerboard="0"
     showgrid="false"
     fit-margin-top="0"
     fit-margin-left="0"
     fit-margin-right="0"
     fit-margin-bottom="0"
     inkscape:zoom="6.0306634"
     inkscape:cx="38.884611"
     inkscape:cy="30.759468"
     inkscape:window-width="1366"
     inkscape:window-height="690"
     inkscape:window-x="0"
     inkscape:window-y="0"
     inkscape:window-maximized="1"
     inkscape:current-layer="Layer_1" /><circle
     style="fill:#fefeff;fill-opacity:1;stroke:#a71f1f;stroke-width:0.912974;stroke-opacity:1"
     id="path33"
     cx="22.5"
     cy="22.5"
     r="22.043512" /><g
     id="g4"
     transform="matrix(0.13896689,0,0,0.13896689,13.961942,13.961874)"
     style="fill:#a71f1f;fill-opacity:1"><path
       d="m 1.426,8.313 c -1.901,-1.901 -1.901,-4.984 0,-6.886 1.901,-1.902 4.984,-1.902 6.886,0 L 61.439,54.554 114.566,1.427 c 1.901,-1.902 4.984,-1.902 6.887,0 1.901,1.901 1.901,4.985 0,6.886 l -53.129,53.126 53.128,53.128 c 1.901,1.901 1.901,4.984 0,6.886 -1.902,1.902 -4.985,1.902 -6.887,0 L 61.438,68.326 8.312,121.453 c -1.901,1.902 -4.984,1.902 -6.886,0 -1.901,-1.901 -1.901,-4.984 0,-6.886 L 54.553,61.439 Z"
       id="path2"
       style="fill:#a71f1f;fill-opacity:1" /></g></svg>
