<?xml version="1.0" encoding="UTF-8" standalone="no"?>
<svg
   version="1.1"
   id="Layer_1"
   x="0px"
   y="0px"
   width="75"
   height="62.50132"
   viewBox="0 0 75.000001 62.501319"
   enable-background="new 0 0 122.879 102.401"
   xml:space="preserve"
   sodipodi:docname="customer-support-icon.svg"
   inkscape:version="1.1.2 (0a00cf5339, 2022-02-04)"
   xmlns:inkscape="http://www.inkscape.org/namespaces/inkscape"
   xmlns:sodipodi="http://sodipodi.sourceforge.net/DTD/sodipodi-0.dtd"
   xmlns="http://www.w3.org/2000/svg"
   xmlns:svg="http://www.w3.org/2000/svg"><defs
     id="defs9" /><sodipodi:namedview
     id="namedview7"
     pagecolor="#ffffff"
     bordercolor="#666666"
     borderopacity="1.0"
     inkscape:pageshadow="2"
     inkscape:pageopacity="0.0"
     inkscape:pagecheckerboard="0"
     showgrid="false"
     fit-margin-top="0"
     fit-margin-left="0"
     fit-margin-right="0"
     fit-margin-bottom="0"
     inkscape:zoom="5.1171375"
     inkscape:cx="61.460143"
     inkscape:cy="51.10279"
     inkscape:window-width="1366"
     inkscape:window-height="690"
     inkscape:window-x="0"
     inkscape:window-y="0"
     inkscape:window-maximized="1"
     inkscape:current-layer="Layer_1" /><g
     id="g4"
     style="fill:#a71f1f;fill-opacity:1"
     transform="scale(0.61035653)"><path
       d="M 46.736,0 H 30.311 16.698 C 12.083,0 8.144,1.619 4.881,4.881 1.619,8.144 0,12.083 0,16.698 v 29.313 c 0,4.639 1.619,8.579 4.881,11.841 3.262,3.238 7.202,4.882 11.817,4.882 4.301,0 8.603,0 12.904,0 -0.942,3.673 -2.15,7.178 -3.624,10.463 -1.45,3.311 -3.891,6.477 -7.298,9.497 6.525,-1.691 12.325,-4.229 17.423,-7.587 5.099,-3.335 9.497,-7.468 13.17,-12.373 3.691,0 7.384,0 11.075,0 4.615,0 8.554,-1.644 11.816,-4.882 3.264,-3.262 4.883,-7.202 4.883,-11.841 V 16.698 C 77.047,12.083 75.428,8.143 72.164,4.881 68.902,1.619 64.963,0 60.348,0 Z m 76.143,33.663 v 29.313 c 0,2.667 -0.475,5.159 -1.432,7.479 -0.953,2.314 -2.375,4.416 -4.266,6.308 -0.822,0.814 -1.684,1.545 -2.584,2.188 -0.928,0.66 -1.873,1.221 -2.84,1.681 -0.051,0.024 -0.104,0.047 -0.156,0.068 -1.236,0.575 -2.525,1.009 -3.863,1.299 -1.389,0.302 -2.824,0.453 -4.311,0.453 h -8.734 -0.018 -0.018 -0.018 -0.016 -0.467 c 0.186,0.59 0.379,1.175 0.578,1.755 0.568,1.639 1.207,3.253 1.918,4.837 l 0.01,0.021 h 0.002 c 0.641,1.463 1.496,2.89 2.564,4.279 1.102,1.434 2.447,2.854 4.033,4.261 1.135,1.004 1.24,2.737 0.238,3.871 -0.707,0.799 -1.777,1.088 -2.742,0.838 l -0.002,0.001 c -3.406,-0.884 -6.625,-1.987 -9.654,-3.309 -3.031,-1.321 -5.891,-2.87 -8.58,-4.642 l -0.006,0.008 c -2.672,-1.747 -5.172,-3.715 -7.494,-5.897 -1.969,-1.85 -3.807,-3.857 -5.514,-6.023 h -0.928 -0.016 -0.02 -0.016 -0.018 -8.735 c -1.818,0 -3.56,-0.227 -5.223,-0.676 -1.665,-0.45 -3.251,-1.134 -4.756,-2.048 -1.295,-0.784 -1.709,-2.469 -0.925,-3.764 0.784,-1.295 2.469,-1.709 3.764,-0.925 1.031,0.626 2.144,1.102 3.337,1.424 1.186,0.32 2.454,0.482 3.803,0.482 h 8.735 0.018 0.016 0.02 0.016 2.271 v 0.011 c 0.834,0 1.656,0.379 2.193,1.097 1.732,2.313 3.648,4.456 5.74,6.422 2.066,1.941 4.316,3.708 6.742,5.295 l -0.006,0.008 0.006,0.003 c 2.305,1.519 4.777,2.865 7.418,4.038 -0.5,-0.846 -0.938,-1.699 -1.314,-2.561 v 0 c -0.752,-1.681 -1.445,-3.438 -2.08,-5.267 -0.602,-1.738 -1.141,-3.525 -1.617,-5.353 -0.105,-0.294 -0.164,-0.61 -0.164,-0.94 0,-1.521 1.232,-2.753 2.752,-2.753 h 4.102 0.016 0.018 0.018 0.018 8.734 c 1.107,0 2.156,-0.108 3.148,-0.324 0.943,-0.204 1.84,-0.503 2.689,-0.895 0.041,-0.022 0.084,-0.044 0.127,-0.064 0.717,-0.342 1.393,-0.737 2.021,-1.186 0.656,-0.469 1.289,-1.004 1.895,-1.606 1.371,-1.37 2.391,-2.87 3.063,-4.501 0.67,-1.624 1.002,-3.421 1.002,-5.394 V 33.663 c 0,-1.96 -0.332,-3.751 -1.002,-5.373 -0.672,-1.628 -1.691,-3.127 -3.063,-4.498 v 0 l -0.01,-0.011 c -1.371,-1.371 -2.869,-2.391 -4.498,-3.062 -1.621,-0.669 -3.412,-1.002 -5.373,-1.002 h -7.873 -5.738 c -1.521,0 -2.754,-1.233 -2.754,-2.753 0,-1.521 1.232,-2.753 2.754,-2.753 h 5.738 7.873 c 2.656,0 5.143,0.476 7.459,1.432 2.307,0.952 4.406,2.37 6.295,4.256 l 0.004,0.005 0.006,0.005 0.002,0.002 c 1.887,1.888 3.303,3.986 4.254,6.292 0.959,2.318 1.434,4.805 1.434,7.46 z"
       id="path2"
       style="fill:#a71f1f;fill-opacity:1" /></g></svg>
