<?xml version="1.0" encoding="UTF-8" standalone="no"?>
<svg
   version="1.1"
   id="Layer_1"
   x="0px"
   y="0px"
   viewBox="0 0 45.000001 45.000001"
   xml:space="preserve"
   sodipodi:docname="hamburger-icon.svg"
   inkscape:version="1.1.2 (0a00cf5339, 2022-02-04)"
   width="45"
   height="45"
   xmlns:inkscape="http://www.inkscape.org/namespaces/inkscape"
   xmlns:sodipodi="http://sodipodi.sourceforge.net/DTD/sodipodi-0.dtd"
   xmlns="http://www.w3.org/2000/svg"
   xmlns:svg="http://www.w3.org/2000/svg"><defs
     id="defs11" /><sodipodi:namedview
     id="namedview9"
     pagecolor="#ffffff"
     bordercolor="#666666"
     borderopacity="1.0"
     inkscape:pageshadow="2"
     inkscape:pageopacity="0.0"
     inkscape:pagecheckerboard="0"
     showgrid="false"
     inkscape:zoom="2.7305889"
     inkscape:cx="43.397232"
     inkscape:cy="64.638071"
     inkscape:window-width="1366"
     inkscape:window-height="690"
     inkscape:window-x="0"
     inkscape:window-y="0"
     inkscape:window-maximized="1"
     inkscape:current-layer="Layer_1"
     fit-margin-top="0"
     fit-margin-left="0"
     fit-margin-right="0"
     fit-margin-bottom="0" /><style
     type="text/css"
     id="style2">.st0{fill-rule:evenodd;clip-rule:evenodd;}</style><circle
     style="fill:#ffffff;fill-opacity:1;stroke:#a71f1f;stroke-width:1.1626;stroke-opacity:1"
     id="path905"
     cx="22.5"
     cy="22.5"
     r="21.918701" /><path
     class="st0"
     d="m 12.56571,13.421952 h 19.868576 c 0.930987,0 1.691669,0.760683 1.691669,1.691667 v 0 c 0,0.930985 -0.760682,1.691668 -1.691669,1.691668 H 12.56571 c -0.930985,0 -1.691668,-0.760683 -1.691668,-1.691668 v 0 c 0,-0.930984 0.760683,-1.691667 1.691668,-1.691667 z m 0,14.77276 h 19.868576 c 0.930987,0 1.691669,0.760683 1.691669,1.691667 v 0 c 0,0.930985 -0.760682,1.691668 -1.691669,1.691668 H 12.56571 c -0.930985,0 -1.691668,-0.760683 -1.691668,-1.691668 v 0 c 0,-0.930984 0.760683,-1.691667 1.691668,-1.691667 z m 0,-7.387326 h 19.868576 c 0.930987,0 1.691669,0.760683 1.691669,1.691667 v 0 c 0,0.930985 -0.760682,1.691668 -1.691669,1.691668 H 12.56571 c -0.930985,0 -1.691668,-0.760683 -1.691668,-1.691668 v 0 c 0,-0.929092 0.760683,-1.691667 1.691668,-1.691667 z"
     id="path4"
     style="fill:#a71f1f;fill-opacity:1;stroke-width:0.189224" /></svg>
