<?xml version="1.0" encoding="UTF-8" standalone="no"?>
<svg
   version="1.1"
   id="Layer_1"
   x="0px"
   y="0px"
   viewBox="0 0 40 53.283983"
   xml:space="preserve"
   sodipodi:docname="location-icon.svg"
   width="40"
   height="53.283981"
   inkscape:version="1.1.2 (0a00cf5339, 2022-02-04)"
   xmlns:inkscape="http://www.inkscape.org/namespaces/inkscape"
   xmlns:sodipodi="http://sodipodi.sourceforge.net/DTD/sodipodi-0.dtd"
   xmlns="http://www.w3.org/2000/svg"
   xmlns:svg="http://www.w3.org/2000/svg"><defs
     id="defs11" /><sodipodi:namedview
     id="namedview9"
     pagecolor="#ffffff"
     bordercolor="#666666"
     borderopacity="1.0"
     inkscape:pageshadow="2"
     inkscape:pageopacity="0.0"
     inkscape:pagecheckerboard="0"
     showgrid="false"
     inkscape:zoom="4.264323"
     inkscape:cx="46.079999"
     inkscape:cy="61.322747"
     inkscape:window-width="1366"
     inkscape:window-height="690"
     inkscape:window-x="0"
     inkscape:window-y="0"
     inkscape:window-maximized="1"
     inkscape:current-layer="Layer_1" /><style
     type="text/css"
     id="style2">.st0{fill-rule:evenodd;clip-rule:evenodd;}</style><g
     id="g6"
     style="fill:#a71f1f;fill-opacity:1"
     transform="matrix(0.43362255,0,0,0.43362255,-2.0593692e-4,5.1668996e-4)"><path
       class="st0"
       d="m 68.51,106.28 c -5.59,6.13 -12.1,11.62 -19.41,16.06 -0.9,0.66 -2.12,0.74 -3.12,0.1 -10.8,-6.87 -19.87,-15.12 -27,-24.09 C 9.14,86.01 2.95,72.33 0.83,59.15 -1.33,45.79 0.69,32.93 7.34,22.48 9.96,18.35 13.31,14.59 17.39,11.34 26.77,3.87 37.48,-0.08 48.16,0 c 10.28,0.08 20.43,3.91 29.2,11.92 3.08,2.8 5.67,6.01 7.79,9.49 7.15,11.78 8.69,26.8 5.55,42.02 -3.1,15.04 -10.8,30.32 -22.19,42.82 z M 46.12,23.76 c 12.68,0 22.95,10.28 22.95,22.95 0,12.68 -10.28,22.95 -22.95,22.95 C 33.44,69.66 23.17,59.39 23.17,46.71 23.16,34.03 33.44,23.76 46.12,23.76 Z"
       id="path4"
       style="fill:#a71f1f;fill-opacity:1" /></g></svg>
