<?xml version="1.0" encoding="UTF-8" standalone="no"?>
<svg
   version="1.1"
   id="Layer_1"
   x="0px"
   y="0px"
   viewBox="0 0 40 67.390657"
   xml:space="preserve"
   sodipodi:docname="phone-icon.svg"
   width="40"
   height="67.390656"
   inkscape:version="1.1.2 (0a00cf5339, 2022-02-04)"
   xmlns:inkscape="http://www.inkscape.org/namespaces/inkscape"
   xmlns:sodipodi="http://sodipodi.sourceforge.net/DTD/sodipodi-0.dtd"
   xmlns="http://www.w3.org/2000/svg"
   xmlns:svg="http://www.w3.org/2000/svg"><defs
     id="defs11" /><sodipodi:namedview
     id="namedview9"
     pagecolor="#ffffff"
     bordercolor="#666666"
     borderopacity="1.0"
     inkscape:pageshadow="2"
     inkscape:pageopacity="0.0"
     inkscape:pagecheckerboard="0"
     showgrid="false"
     inkscape:zoom="4.264323"
     inkscape:cx="36.465343"
     inkscape:cy="61.322747"
     inkscape:window-width="1366"
     inkscape:window-height="690"
     inkscape:window-x="0"
     inkscape:window-y="0"
     inkscape:window-maximized="1"
     inkscape:current-layer="Layer_1" /><style
     type="text/css"
     id="style2">.st0{fill-rule:evenodd;clip-rule:evenodd;}</style><g
     id="g6"
     style="fill:#a71f1f;fill-opacity:1"
     transform="scale(0.54847114)"><path
       class="st0"
       d="M 10.94,0 H 61.98 C 68,0 72.93,4.93 72.93,10.94 v 100.99 c 0,6.02 -4.93,10.94 -10.94,10.94 H 10.95 C 4.93,122.88 0,117.95 0,111.94 V 10.95 C 0,4.93 4.93,0 10.94,0 Z m 25.52,100.1 c 3.91,0 7.09,3.17 7.09,7.09 0,3.91 -3.18,7.09 -7.09,7.09 -3.92,0 -7.09,-3.17 -7.09,-7.09 0,-3.91 3.18,-7.09 7.09,-7.09 z M 25.17,8.86 h 22.59 c 0.16,0 0.3,0.14 0.3,0.3 v 3.3 c 0,0.16 -0.14,0.3 -0.3,0.3 H 25.17 c 0,0 0,0 0,0 -0.16,0 -0.3,-0.13 -0.3,-0.3 v 0 -3.3 c 0,0 0,0 0,0 0,-0.17 0.13,-0.3 0.3,-0.3 z M 9.65,21.53 h 53.63 c 0.98,0 1.78,0.81 1.78,1.78 v 70.01 c 0,0.97 -0.81,1.78 -1.78,1.78 H 9.65 C 8.68,95.1 7.87,94.3 7.87,93.32 V 23.3 c 0,-0.97 0.8,-1.77 1.78,-1.77 z"
       id="path4"
       style="fill:#a71f1f;fill-opacity:1" /></g></svg>
