<?xml version="1.0" encoding="UTF-8" standalone="no"?>
<svg
   version="1.1"
   id="Layer_1"
   x="0px"
   y="0px"
   width="75"
   height="63.148098"
   viewBox="0 0 75.000001 63.148099"
   enable-background="new 0 0 122.879 103.461"
   xml:space="preserve"
   sodipodi:docname="quick-installation-icon.svg"
   inkscape:version="1.1.2 (0a00cf5339, 2022-02-04)"
   xmlns:inkscape="http://www.inkscape.org/namespaces/inkscape"
   xmlns:sodipodi="http://sodipodi.sourceforge.net/DTD/sodipodi-0.dtd"
   xmlns="http://www.w3.org/2000/svg"
   xmlns:svg="http://www.w3.org/2000/svg"><defs
     id="defs9" /><sodipodi:namedview
     id="namedview7"
     pagecolor="#ffffff"
     bordercolor="#666666"
     borderopacity="1.0"
     inkscape:pageshadow="2"
     inkscape:pageopacity="0.0"
     inkscape:pagecheckerboard="0"
     showgrid="false"
     inkscape:zoom="5.0647104"
     inkscape:cx="61.50401"
     inkscape:cy="51.631777"
     inkscape:window-width="1366"
     inkscape:window-height="690"
     inkscape:window-x="0"
     inkscape:window-y="0"
     inkscape:window-maximized="1"
     inkscape:current-layer="Layer_1" /><g
     id="g4"
     style="fill:#a71f1f;fill-opacity:1"
     transform="scale(0.61035653)"><path
       d="m 85.275,18.308 c 9.75,1.166 18.492,5.614 25.09,12.21 7.732,7.732 12.514,18.415 12.514,30.212 0,11.799 -4.781,22.482 -12.514,30.215 -7.733,7.733 -18.416,12.516 -30.215,12.516 -11.799,0 -22.48,-4.783 -30.213,-12.516 C 42.204,83.212 37.422,72.529 37.422,60.73 37.422,48.932 42.205,38.25 49.937,30.518 57.02,23.435 66.58,18.827 77.203,18.103 v -7.167 c 0,-0.109 0.006,-0.216 0.014,-0.323 h -8.004 c -1.313,0 -2.385,-1.074 -2.385,-2.386 V 2.386 C 66.828,1.074 67.9,0 69.213,0 h 24.053 c 1.313,0 2.387,1.074 2.387,2.386 v 5.841 c 0,1.313 -1.074,2.386 -2.387,2.386 h -8.004 c 0.01,0.106 0.014,0.214 0.014,0.323 v 7.372 z m -1.693,36.04 c 2.271,1.223 3.814,3.623 3.814,6.383 0,4.002 -3.244,7.248 -7.246,7.248 -4.002,0 -7.246,-3.246 -7.246,-7.248 0,-2.76 1.545,-5.16 3.816,-6.383 V 37.744 c 0,-1.895 1.535,-3.431 3.43,-3.431 1.895,0 3.432,1.536 3.432,3.431 z m -73.055,30.25 c -1.895,0 -3.431,-1.537 -3.431,-3.432 0,-1.895 1.536,-3.43 3.431,-3.43 h 19.378 c 1.895,0 3.43,1.535 3.43,3.43 0,1.895 -1.536,3.432 -3.43,3.432 z M 3.43,64.424 C 1.535,64.424 0,62.889 0,60.994 0,59.099 1.536,57.562 3.43,57.562 h 22.447 c 1.894,0 3.43,1.537 3.43,3.432 0,1.895 -1.536,3.43 -3.43,3.43 z m 6.924,-19.65 c -1.895,0 -3.43,-1.536 -3.43,-3.43 0,-1.894 1.536,-3.431 3.43,-3.431 h 19.229 c 1.895,0 3.431,1.536 3.431,3.431 0,1.895 -1.536,3.43 -3.431,3.43 z M 118.527,31.215 c 1.658,-3.958 1.461,-8.104 -0.912,-10.882 -2.848,-3.333 -7.996,-3.715 -12.777,-1.37 5.064,3.473 9.662,7.513 13.689,12.252 z m -76.752,0 C 40.116,27.257 40.313,23.111 42.686,20.333 45.534,17 50.682,16.618 55.463,18.963 50.4,22.436 45.801,26.476 41.775,31.215 Z m 63.739,4.154 C 99.024,28.878 90.057,24.864 80.151,24.864 c -9.904,0 -18.872,4.015 -25.362,10.505 -6.491,6.49 -10.505,15.458 -10.505,25.362 0,9.906 4.015,18.873 10.505,25.363 6.49,6.49 15.457,10.506 25.361,10.506 9.906,0 18.873,-4.016 25.363,-10.506 6.49,-6.49 10.507,-15.457 10.507,-25.364 0,-9.904 -4.016,-18.871 -10.506,-25.361 z"
       id="path2"
       style="fill:#a71f1f;fill-opacity:1" /></g></svg>
