<?xml version="1.0" encoding="UTF-8" standalone="no"?>
<svg
   version="1.1"
   id="Layer_1"
   x="0px"
   y="0px"
   width="76"
   height="63.010376"
   viewBox="0 0 76.000002 63.010377"
   enable-background="new 0 0 122.88 101.878"
   xml:space="preserve"
   sodipodi:docname="tools-icon.svg"
   inkscape:version="1.1.2 (0a00cf5339, 2022-02-04)"
   xmlns:inkscape="http://www.inkscape.org/namespaces/inkscape"
   xmlns:sodipodi="http://sodipodi.sourceforge.net/DTD/sodipodi-0.dtd"
   xmlns="http://www.w3.org/2000/svg"
   xmlns:svg="http://www.w3.org/2000/svg"><defs
     id="defs9" /><sodipodi:namedview
     id="namedview7"
     pagecolor="#ffffff"
     bordercolor="#666666"
     borderopacity="1.0"
     inkscape:pageshadow="2"
     inkscape:pageopacity="0.0"
     inkscape:pagecheckerboard="0"
     showgrid="false"
     inkscape:zoom="5.1434069"
     inkscape:cx="61.535089"
     inkscape:cy="50.841787"
     inkscape:window-width="1366"
     inkscape:window-height="690"
     inkscape:window-x="0"
     inkscape:window-y="0"
     inkscape:window-maximized="1"
     inkscape:current-layer="Layer_1" /><g
     id="g4"
     style="fill:#a71f1f;fill-opacity:1"
     transform="scale(0.61849462)"><path
       fill-rule="evenodd"
       clip-rule="evenodd"
       d="m 64.406,12.143 c -2.672,-1.042 -5.431,-1.586 -8.276,-1.586 -4.279,0 -7.798,1.369 -10.557,4.084 L 21.765,38.427 24.242,40.926 15.205,50.027 0,34.799 9.036,25.762 11.838,28.499 35.515,4.844 C 38.773,1.608 42.271,0 46.007,0 52.285,0 58.411,4.041 64.406,12.143 Z m 36.129,-6.735 c 2.588,0 5.072,0.441 7.384,1.25 l -5.874,6.358 c -13.345,14.437 1.715,22.79 14.986,12.879 l 5.119,-3.822 c 0.475,1.813 0.729,3.717 0.729,5.679 0,12.341 -10.003,22.345 -22.345,22.345 -4.026,0 -7.804,-1.065 -11.066,-2.929 L 78.616,58.689 c 10.214,9.778 20.431,19.554 30.646,29.33 L 95.404,101.877 C 85.74,91.8 76.08,81.718 66.422,71.635 L 47.394,91.833 c -1.445,2.471 -4.126,4.132 -7.194,4.132 -4.599,0 -8.329,-3.729 -8.329,-8.329 0,-1.988 0.699,-3.815 1.862,-5.247 l -0.012,-0.012 0.073,-0.063 c 0.601,-0.723 1.322,-1.342 2.132,-1.828 L 57.327,62.14 30.941,34.504 41.89,23.556 C 52.047,33.312 60.292,41.138 70.462,50.88 L 82.326,40.708 C 79.722,37.054 78.19,32.583 78.19,27.753 78.19,15.411 88.193,5.408 100.535,5.408 Z M 28.63,10.362 17.747,21.245 15.661,19.16 26.544,8.276 Z"
       id="path2"
       style="fill:#a71f1f;fill-opacity:1" /></g></svg>
