<?xml version="1.0" encoding="UTF-8" standalone="no"?>
<svg
   id="Layer_1"
   data-name="Layer 1"
   viewBox="0 0 87.000002 75.409912"
   version="1.1"
   sodipodi:docname="vision-icon.svg"
   width="87"
   height="75.409912"
   inkscape:version="1.1.2 (0a00cf5339, 2022-02-04)"
   xmlns:inkscape="http://www.inkscape.org/namespaces/inkscape"
   xmlns:sodipodi="http://sodipodi.sourceforge.net/DTD/sodipodi-0.dtd"
   xmlns="http://www.w3.org/2000/svg"
   xmlns:svg="http://www.w3.org/2000/svg">
  <sodipodi:namedview
     id="namedview11"
     pagecolor="#ffffff"
     bordercolor="#666666"
     borderopacity="1.0"
     inkscape:pageshadow="2"
     inkscape:pageopacity="0.0"
     inkscape:pagecheckerboard="0"
     showgrid="false"
     inkscape:zoom="4.9201878"
     inkscape:cx="61.481393"
     inkscape:cy="53.148378"
     inkscape:window-width="1366"
     inkscape:window-height="690"
     inkscape:window-x="0"
     inkscape:window-y="0"
     inkscape:window-maximized="1"
     inkscape:current-layer="Layer_1" />
  <defs
     id="defs4">
    <style
       id="style2">.cls-1{fill-rule:evenodd;}</style>
  </defs>
  <title
     id="title6">chart</title>
  <path
     class="cls-1"
     d="m 13.728271,45.907227 v 28.207031 a 1.3027344,1.3027344 0 0 1 -1.295654,1.288574 H 1.2956543 A 1.2956543,1.2956543 0 0 1 0,74.114258 V 45.907227 Z M 0,36.696045 29.446045,10.931641 c 6.520752,6.37207 12.843262,14.110595 19.293213,20.482666 L 72.266357,7.7880859 64.690674,0.19824219 87,0 v 22.500488 l -7.27124,-7.27124 c -5.218018,5.288818 -17.558594,16.935547 -22.776612,22.160645 -6.605712,6.598632 -9.756347,6.718994 -16.35498,0.120361 L 29.446045,25.105957 16.376221,36.696045 Z m 80.974854,-9.303223 v 46.728516 a 1.3027344,1.3027344 0 0 1 -1.288575,1.288574 H 68.542236 a 1.3027344,1.3027344 0 0 1 -1.281494,-1.295654 v -33.55249 c 2.124024,-2.060303 4.602051,-4.45337 7.129639,-6.888916 l 5.274658,-5.076416 a 17.105469,17.105469 0 0 1 1.323975,-1.203614 z M 58.559326,48.385254 v 25.729004 a 1.3027344,1.3027344 0 0 1 -1.295654,1.288574 H 46.126709 A 1.3027344,1.3027344 0 0 1 44.831055,74.114258 V 51.132324 a 15.916016,15.916016 0 0 0 4.056884,0.446045 16.992187,16.992188 0 0 0 9.671387,-3.193115 z M 36.143799,46.26123 v 27.817627 a 1.3027344,1.3027344 0 0 1 -1.295654,1.288575 H 23.704102 A 1.2956543,1.2956543 0 0 1 22.415527,74.078857 V 43.896484 q 0.339844,-0.254882 0.658448,-0.531005 l 5.564941,-4.956055 4.48877,4.956055 0.346923,0.361084 q 1.359375,1.366455 2.66919,2.492187 z"
     id="path8"
     style="fill:#a71f1f;fill-opacity:1;stroke-width:0.708008" />
</svg>
