<?xml version="1.0" encoding="UTF-8" standalone="no"?>
<svg
   id="Layer_1"
   data-name="Layer 1"
   viewBox="0 0 49.999997 50.000005"
   version="1.1"
   sodipodi:docname="sun-warm-icon.svg"
   width="49.999996"
   height="50.000004"
   inkscape:version="1.1.2 (0a00cf5339, 2022-02-04)"
   xmlns:inkscape="http://www.inkscape.org/namespaces/inkscape"
   xmlns:sodipodi="http://sodipodi.sourceforge.net/DTD/sodipodi-0.dtd"
   xmlns="http://www.w3.org/2000/svg"
   xmlns:svg="http://www.w3.org/2000/svg">
  <defs
     id="defs9" />
  <sodipodi:namedview
     id="namedview7"
     pagecolor="#ffffff"
     bordercolor="#666666"
     borderopacity="1.0"
     inkscape:pageshadow="2"
     inkscape:pageopacity="0.0"
     inkscape:pagecheckerboard="0"
     showgrid="false"
     inkscape:zoom="4.264323"
     inkscape:cx="61.557251"
     inkscape:cy="61.557251"
     inkscape:window-width="1366"
     inkscape:window-height="690"
     inkscape:window-x="0"
     inkscape:window-y="0"
     inkscape:window-maximized="1"
     inkscape:current-layer="Layer_1" />
  <title
     id="title2">sun-warm</title>
  <path
     d="M 12.232952,5.4203421 A 1.5946133,1.5946133 0 1 1 14.99208,3.8216712 l 2.053115,3.5422327 A 1.6022931,1.6022931 0 1 1 14.28201,8.98692 Z m 12.760965,5.2748029 a 14.294714,14.294714 0 1 1 -10.115448,4.183324 14.254139,14.254139 0 0 1 10.11139,-4.187382 z M 23.719849,1.6833475 a 1.6027284,1.6027284 0 1 1 3.201399,0 V 5.765233 a 1.6027284,1.6027284 0 1 1 -3.201399,0 z m 11.839902,2.4750996 a 1.5946133,1.5946133 0 1 1 2.763185,1.5824407 L 36.269821,9.2952931 A 1.5946133,1.5946133 0 1 1 33.506636,7.7047373 l 2.053115,-3.5503477 z m 8.999625,8.0745049 a 1.5961626,1.5961626 0 1 1 1.598671,2.763185 l -3.550348,2.053116 a 1.6022931,1.6022931 0 1 1 -1.623016,-2.763185 z m 3.757282,11.490954 a 1.6027284,1.6027284 0 1 1 0,3.2014 h -4.102173 a 1.6027284,1.6027284 0 1 1 0,-3.2014 z m -2.495387,11.839903 a 1.5946133,1.5946133 0 1 1 -1.586499,2.763185 l -3.554405,-2.053116 a 1.5946133,1.5946133 0 1 1 1.578383,-2.767242 l 3.550348,2.053115 z m -8.070448,8.995567 a 1.5961626,1.5961626 0 1 1 -2.763185,1.598671 l -2.06123,-3.550348 a 1.6022931,1.6022931 0 0 1 2.763185,-1.623016 l 2.053115,3.554405 z m -11.490954,3.757282 a 1.6027284,1.6027284 0 1 1 -3.201399,0 v -4.102173 a 1.6027284,1.6027284 0 1 1 3.201399,0 z M 14.419967,45.821271 a 1.5946133,1.5946133 0 0 1 -2.763185,-1.586499 l 2.053115,-3.554405 a 1.5946133,1.5946133 0 1 1 2.763185,1.578383 l -2.053115,3.550348 z M 5.4203421,37.750823 A 1.5961626,1.5961626 0 1 1 3.8216712,34.987638 l 3.5422327,-2.06123 a 1.605793,1.605793 0 1 1 1.6230161,2.7713 L 5.4325147,37.750823 Z M 1.6833475,26.259869 a 1.6027284,1.6027284 0 1 1 0,-3.201399 H 5.765233 a 1.6027284,1.6027284 0 1 1 0,3.201399 z M 4.1584471,14.419967 a 1.5946133,1.5946133 0 1 1 1.5824407,-2.763185 l 3.5544053,2.053115 a 1.5946133,1.5946133 0 1 1 -1.5905558,2.763185 z"
     id="path4"
     style="fill:#a71f1f;fill-opacity:1;stroke-width:0.405754" />
</svg>
